<svg xmlns="http://www.w3.org/2000/svg" viewBox="0 0 512 512"><defs><style>.cls-1{fill:#ffe4ca;}.cls-2{fill:#f4c35d;}.cls-3{fill:#fff3b4;}</style></defs><g id="Layer_3" data-name="Layer 3"><path class="cls-1" d="M95.91,377.06c0,5,5.12,11.85,15.44,25.26,8.24,10.71,15.63,19.26,21.06,25.27A165.31,165.31,0,0,1,164.69,429c19.62,2.79,30.55,8,50.54,14a462,462,0,0,0,49.13,11.23c49,8.53,119.64-64.43,148.8-96.86,1.27-4.24,5.25-19-1.4-25.27-7.62-7.12-28.45-2.34-49.13,16.85-20.13,18.67-24.09,29.08-46.33,42.11a114.41,114.41,0,0,1-28.07,11.23c-23.49,5.87-44.83,2.24-54.75,0-4.64-3.07-5.75-7.75-4.21-9.82s5.25-1.46,5.61-1.41H279.8c3.08-.54,22.85-4.3,28.08-18.25,1-2.55,3.11-8.3,0-12.63-3-4.16-8.85-4.22-9.83-4.21l-46.32-1.41a221.91,221.91,0,0,1-28.08-8.42c-3.27-1.22-6.15-2.39-8.69-3.47-7.55-3.23-13-6-13.77-6.35-8.4-4.14-31.41-5.4-57.55,4.21C132.3,344.72,96.05,358.05,95.91,377.06Z"/><path class="cls-2" d="M416.09,209.36a152.34,152.34,0,0,1-95.87,141.5,8.44,8.44,0,0,0-1.4-3.23c-3-4.16-8.85-4.22-9.82-4.21L262.67,342a222.45,222.45,0,0,1-28.07-8.43c-3.28-1.22-6.16-2.39-8.7-3.47-7.54-3.23-13-6-13.77-6.35-7.32-3.61-25.76-5-47.69,1A152.31,152.31,0,1,1,416.09,209.36Z"/><path class="cls-3" d="M315.32,205.13a33.56,33.56,0,0,1,10.14,1.55,32.61,32.61,0,0,1,8.56,4,23.12,23.12,0,0,1,6,5.73,11.63,11.63,0,0,1,2.27,6.8,15.53,15.53,0,0,1-4.72,11.09,50.67,50.67,0,0,1-11.71,8.83,96.93,96.93,0,0,1-15.56,6.92q-8.58,3-15.91,5.37a65.12,65.12,0,0,0,1.22,8.11,38.58,38.58,0,0,1,.88,8.11q0,4.77-5.77,8.59a22.68,22.68,0,0,1-12.76,3.81q-6.65,0-10.32-2.38a15.72,15.72,0,0,1-5.59-6.2,21.63,21.63,0,0,1-2.28-8.12q-.35-4.29-.35-8.35a119.84,119.84,0,0,1-30.06-5.36A80.28,80.28,0,0,1,205.88,242a51.94,51.94,0,0,1-15-16.94,43.5,43.5,0,0,1-5.25-21.11q0-20.28,15.91-35.43t43.88-21.59a46.05,46.05,0,0,0-1.22-6.08,22.28,22.28,0,0,1-.88-5.85q0-4.77,5.77-8.23a24.41,24.41,0,0,1,12.76-3.46q6.65,0,10.49,2.27a14.33,14.33,0,0,1,5.6,5.6,22,22,0,0,1,2.27,7.28,55.22,55.22,0,0,1,.52,7.28A111.47,111.47,0,0,1,300.63,149a80.35,80.35,0,0,1,17.13,6.32A40.6,40.6,0,0,1,329.48,164a14.27,14.27,0,0,1,4,10.61,12.15,12.15,0,0,1-2.27,6.92,22.26,22.26,0,0,1-6,5.85,29.83,29.83,0,0,1-8.56,3.93,35.8,35.8,0,0,1-10.14,1.43,38.73,38.73,0,0,1-10.14-1.31,22,22,0,0,1-8.39-4.17,26.33,26.33,0,0,0-15-5.37,41,41,0,0,0-15.91,2.38,32.89,32.89,0,0,0-12.59,8q-5.07,5.25-5.06,11.45a17.82,17.82,0,0,0,1.39,6.92,16.39,16.39,0,0,0,4.37,6,24.14,24.14,0,0,0,7.17,4.29,27.32,27.32,0,0,0,10.14,1.67q12.59,0,19.06-2.74a54.14,54.14,0,0,0,10.84-6,98.82,98.82,0,0,1,9.09-6Q306.22,205.14,315.32,205.13Z"/></g></svg>